<svg width="64" height="64" viewBox="0 0 64 64" fill="none" xmlns="http://www.w3.org/2000/svg">
<path d="M43.5363 8.12917C54.2623 -2.59258 66.5951 9.73548 55.8692 20.4572C50.8002 25.5243 44.0106 27.6543 35.9428 28.1465C35.8497 29.401 35.7878 30.6861 35.7502 32C35.7141 33.262 35.7265 34.5457 35.7944 35.8367C43.9273 36.2994 50.7691 38.4446 55.8692 43.5428C66.5951 54.2645 54.2623 66.5926 43.5363 55.8708C38.3356 50.6721 36.1781 43.136 35.7944 35.8367C34.5624 35.7666 33.3007 35.7351 32.011 35.7378C30.7432 35.7405 29.4556 35.7791 28.1618 35.8638C27.68 43.9576 25.5467 50.768 20.4637 55.849C9.73776 66.5707 -2.59511 54.2427 8.13082 43.5209C13.3664 38.2874 20.8619 36.3418 28.1618 35.8638C28.2367 34.6063 28.2717 33.3178 28.2717 32C28.2717 30.6893 28.2371 29.4076 28.163 28.1565C20.0504 27.6844 13.218 25.5643 8.13078 20.4791C-2.59515 9.75733 9.73772 -2.57074 20.4636 8.151C25.5509 13.2363 27.6835 20.0538 28.163 28.1565C29.4157 28.2294 30.6989 28.263 32.011 28.2622C33.3525 28.2613 34.6637 28.2245 35.9428 28.1465C36.5445 20.0424 38.4509 13.2127 43.5363 8.12917Z" fill="url(#paint0_linear_4009_639)" fill-opacity="0.3"/>
<path d="M35.9428 28.1465C36.5445 20.0424 38.4509 13.2127 43.5363 8.12917C54.2623 -2.59258 66.5951 9.73548 55.8692 20.4572C50.8002 25.5243 44.0106 27.6543 35.9428 28.1465ZM35.9428 28.1465C35.8497 29.401 35.7878 30.6861 35.7502 32C35.7141 33.262 35.7265 34.5457 35.7944 35.8367M35.9428 28.1465C34.6637 28.2245 33.3525 28.2613 32.011 28.2622C30.6989 28.263 29.4157 28.2294 28.163 28.1565M35.7944 35.8367C36.1781 43.136 38.3356 50.6721 43.5363 55.8708C54.2623 66.5926 66.5951 54.2645 55.8692 43.5428C50.7691 38.4446 43.9273 36.2994 35.7944 35.8367ZM35.7944 35.8367C34.5624 35.7666 33.3007 35.7351 32.011 35.7378C30.7432 35.7405 29.4556 35.7791 28.1618 35.8638M28.1618 35.8638C20.8619 36.3418 13.3664 38.2874 8.13082 43.5209C-2.59511 54.2427 9.73776 66.5707 20.4637 55.849C25.5467 50.768 27.68 43.9576 28.1618 35.8638ZM28.1618 35.8638C28.2367 34.6063 28.2717 33.3178 28.2717 32C28.2717 30.6893 28.2371 29.4076 28.163 28.1565M28.163 28.1565C20.0504 27.6844 13.218 25.5643 8.13078 20.4791C-2.59515 9.75733 9.73772 -2.57074 20.4636 8.151C25.5509 13.2363 27.6835 20.0538 28.163 28.1565Z" stroke="url(#paint1_linear_4009_639)" stroke-linejoin="round"/>
<defs>
<linearGradient id="paint0_linear_4009_639" x1="32" y1="4" x2="32" y2="60" gradientUnits="userSpaceOnUse">
<stop stop-opacity="0"/>
<stop offset="1"/>
</linearGradient>
<linearGradient id="paint1_linear_4009_639" x1="32" y1="4" x2="32" y2="60" gradientUnits="userSpaceOnUse">
<stop stop-opacity="0.8"/>
<stop offset="1"/>
</linearGradient>
</defs>
</svg>
